<svg width="24" height="19" viewBox="0 0 24 19" fill="none" xmlns="http://www.w3.org/2000/svg">
<path d="M20.3303 1.56333C18.7767 0.833 17.1156 0.302227 15.3789 0C15.1656 0.387444 14.9164 0.908565 14.7446 1.32311C12.8985 1.04416 11.0693 1.04416 9.25716 1.32311C9.08539 0.908565 8.83055 0.387444 8.61536 0C6.87681 0.302227 5.21376 0.83495 3.66019 1.5672C0.526643 6.32491 -0.322811 10.9645 0.101917 15.5381C2.18025 17.0976 4.19441 18.0449 6.17457 18.6647C6.66349 17.9887 7.09953 17.27 7.47518 16.5125C6.75975 16.2394 6.07453 15.9023 5.42707 15.511C5.59884 15.3832 5.76686 15.2495 5.92918 15.1119C9.87819 16.9678 14.1689 16.9678 18.0707 15.1119C18.235 15.2495 18.403 15.3832 18.5728 15.511C17.9235 15.9042 17.2364 16.2413 16.521 16.5145C16.8966 17.27 17.3308 17.9906 17.8216 18.6667C19.8036 18.0468 21.8197 17.0995 23.898 15.5381C24.3964 10.2361 23.0467 5.63914 20.3303 1.56333ZM8.01318 12.7254C6.82772 12.7254 5.85555 11.6134 5.85555 10.2593C5.85555 8.90523 6.80696 7.79136 8.01318 7.79136C9.21942 7.79136 10.1916 8.90328 10.1708 10.2593C10.1727 11.6134 9.21942 12.7254 8.01318 12.7254ZM15.9867 12.7254C14.8013 12.7254 13.8291 11.6134 13.8291 10.2593C13.8291 8.90523 14.7805 7.79136 15.9867 7.79136C17.193 7.79136 18.1651 8.90328 18.1444 10.2593C18.1444 11.6134 17.193 12.7254 15.9867 12.7254Z" fill="black"/>
</svg>
