<svg width="24" height="24" viewBox="0 0 24 24" fill="none" xmlns="http://www.w3.org/2000/svg">
<path d="M23.3321 15.948C23.7642 14.711 24 13.3827 24 12.0001C24 10.6175 23.7642 9.28919 23.3321 8.05226C23.3216 8.0151 23.3091 7.97886 23.2939 7.944C21.6272 3.31723 17.194 0 12 0C6.80603 0 2.37273 3.31723 0.706085 7.944C0.690947 7.97898 0.678332 8.0151 0.667896 8.05226C0.235782 9.28919 0 10.6175 0 12.0001C0 13.3827 0.235782 14.711 0.667896 15.948C0.678447 15.9851 0.690947 16.0214 0.706085 16.0562C2.37284 20.6831 6.80603 24.0002 12 24.0002C17.194 24.0002 21.6272 20.683 23.2939 16.0562C23.3091 16.0214 23.3216 15.9852 23.3321 15.948ZM12 22.2801C11.543 22.2801 10.8062 21.4531 10.1903 19.6053C9.8931 18.7137 9.65514 17.6887 9.48174 16.5737H14.5183C14.3449 17.6887 14.1069 18.7136 13.8098 19.6053C13.1938 21.4531 12.457 22.2801 12 22.2801ZM9.27302 14.8535C9.19034 13.9363 9.14665 12.9794 9.14665 12.0001C9.14665 11.0209 9.19034 10.064 9.27302 9.14676H14.7269C14.8095 10.064 14.8532 11.0209 14.8532 12.0001C14.8532 12.9794 14.8095 13.9363 14.7269 14.8535H9.27302ZM1.72009 12.0002C1.72009 11.0105 1.86103 10.0532 2.1233 9.14688H7.54766C7.46727 10.083 7.42645 11.0424 7.42645 12.0002C7.42645 12.958 7.46716 13.9174 7.54766 14.8536H2.1233C1.86103 13.9472 1.72009 12.9899 1.72009 12.0002ZM12 1.7202C12.457 1.7202 13.1939 2.54727 13.8098 4.395C14.1069 5.28663 14.345 6.31164 14.5183 7.42656H9.48163C9.65502 6.31153 9.89298 5.28663 10.1902 4.395C10.8062 2.54727 11.543 1.7202 12 1.7202ZM16.4522 9.14688H21.8766C22.1389 10.0532 22.2798 11.0105 22.2798 12.0002C22.2798 12.9899 22.1389 13.9473 21.8766 14.8536H16.4522C16.5326 13.9174 16.5734 12.958 16.5734 12.0002C16.5734 11.0424 16.5326 10.083 16.4522 9.14688ZM21.2044 7.42668H16.2549C15.9489 5.31691 15.424 3.42412 14.6876 2.07754C17.5426 2.85152 19.9079 4.82757 21.2044 7.42668ZM9.31225 2.07743C8.57588 3.424 8.05099 5.31679 7.74503 7.42668H2.79544C4.09213 4.82757 6.45729 2.85152 9.31225 2.07743ZM2.79544 16.5737H7.74503C8.05099 18.6834 8.57588 20.5762 9.31225 21.9229C6.45729 21.1488 4.09213 19.1729 2.79544 16.5737ZM14.6876 21.9229C15.424 20.5763 15.9489 18.6835 16.2549 16.5737H21.2044C19.9079 19.1729 17.5426 21.1488 14.6876 21.9229Z" fill="black"/>
</svg>
